<?xml version="1.0" encoding="UTF-8"?>
<svg version="1.1" xmlns="http://www.w3.org/2000/svg" width="2000" height="520">
<path d="M0 0 C8.75910749 9.04546293 13.47766915 21.5728895 14.03125 34.09765625 C14.0828125 35.01417969 14.134375 35.93070313 14.1875 36.875 C15.08913818 67.26772024 0.11138624 95.42355789 -14.33886719 121.18212891 C-16.01515007 124.1806565 -17.66931798 127.19060843 -19.3203125 130.203125 C-52.26533261 190.06144015 -93.87891397 245.73161615 -138.4921875 297.3828125 C-140.01137684 299.14716202 -141.52234722 300.918254 -143.03125 302.69140625 C-148.50338643 309.11688261 -154.04792867 315.44818276 -159.75390625 321.66796875 C-161.60881817 323.7028104 -163.42303798 325.76086872 -165.21875 327.84765625 C-169.28733765 332.53769881 -173.55951016 337.03992303 -177.81933594 341.55566406 C-178.68413574 342.47557129 -178.68413574 342.47557129 -179.56640625 343.4140625 C-180.07695557 343.95490479 -180.58750488 344.49574707 -181.11352539 345.05297852 C-182.93898916 346.98827903 -182.93898916 346.98827903 -184.21908569 348.83140564 C-186.7887607 352.23679826 -188.65630756 354.43713308 -192.95117188 355.25952148 C-194.4433929 355.42418316 -195.93964287 355.55495299 -197.4375 355.65625 C-198.6353009 355.77456932 -198.6353009 355.77456932 -199.8572998 355.89527893 C-202.39273954 356.13833859 -204.92944698 356.33702208 -207.46875 356.53515625 C-209.17344314 356.69311822 -210.8778775 356.85389957 -212.58203125 357.01757812 C-230.84200248 358.71654063 -230.84200248 358.71654063 -233.83203125 357.07421875 C-238.04835044 353.14201811 -239.05096272 351.30968706 -239.57339478 345.6648407 C-239.73697983 343.92972733 -239.73697983 343.92972733 -239.90386963 342.15956116 C-240.07834625 340.24306007 -240.07834625 340.24306007 -240.25634766 338.2878418 C-240.38271325 336.93150591 -240.50944152 335.57520378 -240.63650513 334.21893311 C-240.91108918 331.27983527 -241.18312812 328.34051647 -241.45326614 325.4010067 C-241.88788194 320.67260405 -242.32848594 315.94477048 -242.76986694 311.21699524 C-243.63660726 301.92427778 -244.4973777 292.63101196 -245.35746765 283.337677 C-249.00838769 243.89736661 -252.66990726 204.4588045 -256.63563108 165.04866815 C-256.86623323 162.75169272 -257.09523236 160.45456252 -257.32381058 158.15738487 C-257.67801019 154.60094482 -258.03678731 151.04499779 -258.39946032 147.48941207 C-258.59458866 145.56735068 -258.78557728 143.64487046 -258.97646713 141.7223835 C-259.15130819 140.02655286 -259.15130819 140.02655286 -259.3296814 138.29646301 C-259.42957052 137.31024365 -259.52945965 136.3240243 -259.63237572 135.3079195 C-259.74073133 133.12811829 -259.74073133 133.12811829 -260.96875 132.09765625 C-261.28480194 132.73198074 -261.60085388 133.36630524 -261.92648315 134.01985168 C-264.95278199 140.09275667 -267.98116766 146.16461718 -271.01171684 152.23540211 C-272.56847393 155.3540641 -274.12451033 158.47308067 -275.67871094 161.59301758 C-282.94668624 176.18140552 -290.28636181 190.72190079 -297.96875 205.09765625 C-298.61909058 206.31886902 -299.26932383 207.54013895 -299.91943359 208.76147461 C-303.2941399 215.08825451 -306.69038637 221.40352201 -310.08421326 227.72006226 C-312.24914721 231.75110762 -314.40232367 235.78826486 -316.55078125 239.828125 C-323.76584876 253.36457209 -331.27327984 266.68589755 -339.08105469 279.88867188 C-341.10480837 283.32894845 -343.10506394 286.78215479 -345.1015625 290.23828125 C-353.4326018 304.63404263 -362.11215862 318.69512597 -371.30566406 332.56298828 C-374.66820589 337.68775476 -377.88730025 342.90197217 -381.11328125 348.11328125 C-382.36618884 350.1284842 -383.65248251 352.12325501 -384.96875 354.09765625 C-387.84188217 354.64783857 -390.54696484 355.01100009 -393.44921875 355.265625 C-394.29543289 355.35016434 -395.14164703 355.43470367 -396.01350403 355.52180481 C-398.72667415 355.78918087 -401.44126713 356.0369416 -404.15625 356.28515625 C-405.96691419 356.46300234 -407.77746322 356.64202505 -409.58789062 356.82226562 C-411.33322974 356.9919543 -413.07866996 357.16060693 -414.82421875 357.328125 C-415.63489304 357.40620895 -416.44556732 357.48429291 -417.2808075 357.56474304 C-429.77141308 358.70109498 -429.77141308 358.70109498 -432.9296875 357.109375 C-437.75547156 352.59020153 -438.17174504 348.98088742 -438.68969727 342.65722656 C-438.75521412 341.89427528 -438.82073097 341.13132401 -438.88823318 340.34525299 C-439.03132422 338.67402831 -439.17273407 337.00265906 -439.31269264 335.33116913 C-439.53910045 332.6287022 -439.76999765 329.9266521 -440.00212097 327.22467041 C-440.33740787 323.31973205 -440.67120983 319.41467098 -441.00402832 315.50952148 C-444.77681178 271.32712475 -448.93166552 227.19631225 -453.64715576 183.10469055 C-453.86957405 181.02499087 -454.09176812 178.94526721 -454.31378174 176.86552429 C-455.99059891 161.15994711 -457.69129491 145.45713436 -459.41906738 129.75708008 C-459.94971918 124.93355535 -460.47511886 120.10950452 -460.99597168 115.28491211 C-461.61160273 109.58846482 -462.24016859 103.89358385 -462.87834167 98.19961929 C-463.11225548 96.09490382 -463.34193008 93.98971207 -463.56697083 91.88402939 C-464.6305405 73.08121475 -464.6305405 73.08121475 -472.59375 56.84765625 C-477.88838345 54.10229076 -482.62849073 53.30408534 -488.484375 54.6953125 C-498.44513707 58.31313646 -506.25518245 65.07090224 -513.7421875 72.375 C-515.96875 74.09765625 -515.96875 74.09765625 -519.96875 74.09765625 C-522.36328125 72.3046875 -522.36328125 72.3046875 -524.78125 69.91015625 C-525.59207031 69.13285156 -526.40289063 68.35554688 -527.23828125 67.5546875 C-528.96875 65.09765625 -528.96875 65.09765625 -528.74804688 62.68994141 C-527.92939741 59.96675217 -526.98452745 58.38329521 -525.23046875 56.1640625 C-524.3801709 55.07738281 -524.3801709 55.07738281 -523.51269531 53.96875 C-522.90006836 53.20691406 -522.28744141 52.44507813 -521.65625 51.66015625 C-521.02686523 50.86609375 -520.39748047 50.07203125 -519.74902344 49.25390625 C-500.69594598 25.35845128 -476.93372921 -2.25935609 -444.91796875 -7.62109375 C-427.12039058 -9.31834624 -410.72357583 -7.53057379 -396.21875 3.84765625 C-376.05230078 22.47026247 -376.11537237 52.93761711 -374.27154922 78.29725266 C-374.030063 81.5914265 -373.77905804 84.88485054 -373.52828693 88.17832851 C-372.64300313 99.81580678 -371.8004542 111.45624161 -370.96875 123.09765625 C-370.90238091 124.02526009 -370.83601181 124.95286392 -370.76763153 125.90857697 C-367.47559005 171.94998087 -364.36319037 217.99981232 -361.96875 264.09765625 C-359.46810347 261.69087889 -357.91834423 259.44297087 -356.2890625 256.36328125 C-355.77956055 255.40945557 -355.27005859 254.45562988 -354.74511719 253.47290039 C-354.20016602 252.44156982 -353.65521484 251.41023926 -353.09375 250.34765625 C-348.75028489 242.214293 -344.31475343 234.1532057 -339.71875 226.16015625 C-333.19009688 214.74230534 -327.19527107 203.06419445 -321.22068787 191.35061646 C-320.88618118 190.69479584 -320.5516745 190.03897522 -320.20703125 189.36328125 C-319.69832237 188.36553177 -319.69832237 188.36553177 -319.17933655 187.34762573 C-316.54651808 182.19651766 -313.85905321 177.0756119 -311.15625 171.9609375 C-305.56167812 161.36723853 -300.10148262 150.70621237 -294.65625 140.03515625 C-294.15395874 139.05142029 -293.65166748 138.06768433 -293.13415527 137.05413818 C-282.95065595 117.10636497 -272.79945774 97.15383376 -263.20019531 76.91650391 C-259.55646043 69.25939894 -255.77779313 61.67361448 -251.96875 54.09765625 C-247.53804581 45.27918809 -243.16141284 36.43980545 -238.90625 27.53515625 C-238.47763672 26.63861328 -238.04902344 25.74207031 -237.60742188 24.81835938 C-234.65416964 18.60859836 -231.81508388 12.35959079 -228.96875 6.09765625 C-213.78875 6.09765625 -198.60875 6.09765625 -182.96875 6.09765625 C-181.64345599 12.72412631 -180.52796477 19.04548936 -179.88842773 25.72558594 C-179.79656 26.64759041 -179.70469227 27.56959488 -179.61004066 28.51953888 C-179.30548849 31.60230267 -179.00958031 34.68581435 -178.71484375 37.76953125 C-178.55609174 39.40787052 -178.55609174 39.40787052 -178.39413261 41.07930756 C-175.48715449 71.13804813 -173.05743251 101.23861837 -170.60328043 131.33696222 C-169.59737995 143.67232418 -168.58334427 156.00702073 -167.57020319 168.34178972 C-167.25666661 172.15916762 -166.94332124 175.97656101 -166.63042068 179.79399109 C-163.80738246 214.23396747 -160.89633044 248.6664279 -157.96875 283.09765625 C-156.68004674 281.65611576 -155.39250949 280.21353283 -154.10546875 278.77050781 C-153.38834717 277.96728088 -152.67122559 277.16405396 -151.93237305 276.33648682 C-149.81484598 273.92218214 -147.861319 271.441781 -145.96875 268.84765625 C-142.45569194 264.08685688 -138.89089288 259.37170928 -135.29052734 254.67651367 C-127.32578627 244.28180386 -119.55484712 233.77125144 -111.96875 223.09765625 C-111.13029541 221.92517334 -111.13029541 221.92517334 -110.27490234 220.72900391 C-101.04096094 207.80356858 -92.32563959 194.60617542 -83.96875 181.09765625 C-83.32164062 180.05287109 -82.67453125 179.00808594 -82.0078125 177.93164062 C-66.54653474 152.8597048 -50.7353209 126.70062552 -57.96875 96.09765625 C-59.98351893 89.32288347 -62.48651202 82.71183302 -64.96875 76.09765625 C-66.05685581 73.19686395 -67.14302601 70.29549116 -68.22021484 67.390625 C-68.90516945 65.54726811 -69.59889115 63.70713421 -70.30322266 61.87109375 C-76.08028959 46.38773699 -77.21801547 30.32603048 -70.28125 14.97265625 C-64.6311426 4.71717829 -56.55581588 -3.71765861 -45.40625 -7.77734375 C-30.28153495 -12.0534412 -12.26541193 -10.46559605 0 0 Z " fill="#A67A5A" transform="translate(1407.96875,157.90234375)"/>
<path d="M0 0 C0.84365112 0.61584961 0.84365112 0.61584961 1.7043457 1.24414062 C2.8180957 1.84226563 3.9318457 2.44039062 5.0793457 3.05664062 C6.64401245 4.40235901 6.64401245 4.40235901 7.7043457 6.24414062 C7.62234497 8.88267517 7.62234497 8.88267517 7.04467773 12.02514648 C6.73364105 13.77092484 6.73364105 13.77092484 6.4163208 15.55197144 C6.18136902 16.77038727 5.94641724 17.9888031 5.7043457 19.24414062 C5.48824646 20.40865753 5.27214722 21.57317444 5.04949951 22.77297974 C4.34745507 26.49793636 3.61861134 30.21687523 2.8840332 33.93554688 C2.61751483 35.29737427 2.35133719 36.6592684 2.08547974 38.02122498 C0.96896306 43.73751193 -0.1541997 49.45248856 -1.27856445 55.16723633 C-1.97129289 58.68939847 -2.66038522 62.21225693 -3.34734726 65.73554802 C-3.73445921 67.71477488 -4.12587539 69.69315833 -4.5173645 71.67152405 C-4.75115814 72.87054855 -4.98495178 74.06957306 -5.22583008 75.30493164 C-5.43297638 76.35826187 -5.64012268 77.4115921 -5.85354614 78.49684143 C-6.40157467 81.43856502 -6.40157467 81.43856502 -6.2956543 85.24414062 C-5.656521 84.59453369 -5.0173877 83.94492676 -4.35888672 83.27563477 C-1.93457631 80.81678815 0.49451439 78.36285572 2.92675781 75.91186523 C3.96900808 74.85969334 5.00944173 73.80571814 6.04785156 72.74975586 C12.92663691 65.75782164 20.00641705 59.34638014 27.7043457 53.24414062 C28.73209866 52.38099393 29.75553377 51.51262119 30.77075195 50.63476562 C63.92702127 22.20028114 105.54265007 -2.99240347 150.7043457 0.24414062 C159.98343268 1.49752048 168.1481574 4.76003321 175.7043457 10.24414062 C176.33727539 10.68371094 176.97020508 11.12328125 177.62231445 11.57617188 C187.68210172 19.28201333 192.03394501 31.31306493 194.2902832 43.37695312 C196.74447457 66.29817441 193.15344605 88.1879205 188.1965332 110.45898438 C188.02433132 111.2343284 187.85212944 112.00967243 187.67470932 112.80851173 C183.61022852 131.05402117 179.07692049 149.176238 174.49469376 167.29729843 C172.65147903 174.59522065 170.82162887 181.89651752 168.98877144 189.19704628 C168.28685459 191.99223859 167.5843724 194.78728837 166.88182068 197.58232117 C162.23987201 216.05725401 157.66282834 234.54804617 153.10536957 253.04397964 C152.5202745 255.41772987 151.93458152 257.79133177 151.34869385 260.16488647 C150.433291 263.87358008 149.51900492 267.582547 148.60572243 271.29176331 C148.27417836 272.63786719 147.94234085 273.98389885 147.61017418 275.32984924 C141.59858657 295.72105847 141.59858657 295.72105847 143.7043457 316.24414062 C145.82472376 318.92452824 146.98125134 320.09994585 150.3684082 320.77539062 C171.16886854 320.5558607 185.88798214 305.16062277 199.7043457 291.24414062 C203.15636209 292.72135485 205.35396507 294.68208063 207.9543457 297.36914062 C208.66075195 298.09359375 209.3671582 298.81804687 210.0949707 299.56445312 C210.62606445 300.11875 211.1571582 300.67304688 211.7043457 301.24414062 C199.1115393 328.83147423 166.60959993 352.68719899 139.3918457 364.05664062 C126.47514138 368.60433114 113.95997254 370.59847408 100.2668457 370.68164062 C99.20183838 370.69171143 98.13683105 370.70178223 97.03955078 370.7121582 C83.47044417 370.56357981 69.55396843 367.09376335 59.7043457 357.24414062 C49.61317894 344.3264554 48.76900917 330.7210562 50.45800781 314.8624115 C51.42248048 307.27621532 53.03508756 299.91634393 54.80981445 292.48242188 C55.12158634 291.16297486 55.43324445 289.84350096 55.74479675 288.52400208 C58.83767432 275.48405303 62.14002156 262.49708246 65.47003174 249.51599121 C67.32290453 242.29132013 69.16048291 235.06274762 70.99731445 227.83398438 C71.18807053 227.08342396 71.3788266 226.33286354 71.57536316 225.55955887 C76.03595602 208.00018619 80.40875644 190.41930784 84.75194931 172.83057022 C85.31831686 170.53876875 85.88595684 168.24728629 86.45401001 165.9559021 C90.12264142 151.15153467 93.74421044 136.33659578 97.14689255 121.46849823 C97.58351893 119.56260504 98.02476194 117.65777125 98.46621704 115.75299072 C101.02576194 104.43346616 103.06695323 93.06660795 103.0168457 81.43164062 C103.03295898 80.66400391 103.04907227 79.89636719 103.06567383 79.10546875 C103.07072275 73.11239603 102.35753101 66.39157975 98.35839844 61.64746094 C91.39576787 55.54195765 83.65539141 55.45770224 74.83422852 56.01025391 C58.33880118 57.82164998 41.66651091 68.50292457 28.7043457 78.24414062 C27.87386719 78.86047363 27.87386719 78.86047363 27.02661133 79.48925781 C18.66024176 85.73303077 10.86485518 92.48300405 3.38793945 99.76757812 C1.06476704 102.02031426 -1.28789293 104.04301045 -3.88549805 105.97070312 C-12.2916259 112.55919404 -14.60385842 119.39418553 -16.72924805 129.71679688 C-17.01951493 131.05035201 -17.31175039 132.38347998 -17.6058197 133.71620178 C-18.21661805 136.4988783 -18.81578813 139.28368431 -19.40570068 142.07086182 C-20.25176737 146.05907371 -21.13641315 150.0374042 -22.03051758 154.01513672 C-23.83760719 162.0639426 -25.60462591 170.12103145 -27.3581543 178.18164062 C-27.59569553 179.27269545 -27.59569553 179.27269545 -27.83803558 180.38579178 C-38.98178617 231.60135324 -48.82280928 283.0676366 -58.2980957 334.61499023 C-58.43079644 335.33633337 -58.56349718 336.05767651 -58.70021915 336.80087852 C-59.32124921 340.17719657 -59.94080706 343.55376259 -60.55766296 346.93084717 C-60.77324356 348.10568665 -60.98882416 349.28052612 -61.2109375 350.4909668 C-61.49068169 352.02173103 -61.49068169 352.02173103 -61.77607727 353.5834198 C-62.21451518 355.8286324 -62.71301185 358.03273229 -63.2956543 360.24414062 C-67.28129886 361.14007797 -71.1809346 361.52895582 -75.25390625 361.81665039 C-75.93428955 361.86556427 -76.61467285 361.91447815 -77.31567383 361.96487427 C-79.55487963 362.12497639 -81.79438131 362.28040088 -84.03393555 362.43554688 C-85.59947604 362.54601823 -87.16500217 362.65669342 -88.73051453 362.76756287 C-92.00949191 362.99904993 -95.28861871 363.22825326 -98.56787109 363.45581055 C-102.7541838 363.74646751 -106.94009645 364.04248387 -111.12591267 364.34019566 C-114.35926516 364.56961139 -117.59280458 364.79629841 -120.82640648 365.02216911 C-122.36890454 365.13021059 -123.91134696 365.23904973 -125.45372963 365.34872627 C-127.61871179 365.50223255 -129.78391823 365.65208584 -131.94921875 365.80102539 C-133.17768021 365.88683365 -134.40614166 365.97264191 -135.67182922 366.06105042 C-136.8676915 366.12147018 -138.06355377 366.18188995 -139.2956543 366.24414062 C-140.32970728 366.3017231 -140.32970728 366.3017231 -141.38465023 366.36046886 C-145.49859445 366.49714618 -148.2972055 366.48477784 -151.44189453 363.70385742 C-153.77800346 361.02839102 -154.28554101 359.67339211 -154.36990356 356.09268188 C-153.78287497 351.95346965 -152.91577522 347.95394027 -151.95581055 343.88867188 C-151.61015245 342.29003467 -151.26822916 340.69058617 -150.92970276 339.09042358 C-150.18219107 335.59524166 -149.40932876 332.10696784 -148.61700439 328.62167358 C-147.33036413 322.95979259 -146.09971324 317.28661799 -144.87719727 311.6105957 C-143.53356258 305.38679305 -142.18476763 299.16424308 -140.81713867 292.94566345 C-137.00866123 275.62671101 -133.33184975 258.28168534 -129.70581055 240.92382812 C-129.49593171 239.91943038 -129.49593171 239.91943038 -129.28181291 238.89474177 C-128.00339523 232.77668167 -126.72569927 226.65847111 -125.44925022 220.53999996 C-123.27180098 210.10388201 -121.08260527 199.67025887 -118.8890028 189.23752308 C-116.80789761 179.33882871 -114.73437596 169.43856093 -112.66353321 159.53771496 C-111.16521521 152.37938323 -109.65821102 145.22296085 -108.14276993 138.06824011 C-106.99967998 132.66982301 -105.8629837 127.2700833 -104.7306813 121.86939341 C-104.05883113 118.66634466 -103.38288818 115.4642508 -102.70097733 112.26332664 C-101.95125204 108.74210598 -101.21277892 105.21869701 -100.47680664 101.69458008 C-100.2544421 100.66361773 -100.03207756 99.63265537 -99.8029747 98.57045174 C-97.8666066 89.19224615 -97.05346725 80.12282057 -101.2956543 71.24414062 C-106.76864592 63.11866841 -113.42099536 59.00061002 -122.2956543 55.24414062 C-124.04591944 54.45306033 -125.7959496 53.66145973 -127.5456543 52.86914062 C-128.7831543 52.33289063 -130.0206543 51.79664063 -131.2956543 51.24414062 C-130.9656543 46.95414063 -130.6356543 42.66414063 -130.2956543 38.24414062 C-122.73896385 35.2483858 -114.97828583 32.96149606 -107.19799805 30.63085938 C-105.69933233 30.17969968 -104.20073774 29.72830365 -102.70220947 29.27668762 C-97.88032599 27.82454915 -93.05682206 26.37783905 -88.2331543 24.93164062 C-86.58264329 24.43655172 -84.93214078 23.94143448 -83.28164673 23.44628906 C-81.62461391 22.94921719 -79.96758063 22.45214688 -78.31054688 21.95507812 C-77.07924561 21.58571357 -77.07924561 21.58571357 -75.82306957 21.2088871 C-71.6867204 19.96813164 -67.55023586 18.72783149 -63.41349792 17.4883728 C-54.81886658 14.91183326 -46.23083107 12.31572735 -37.65367126 9.68159485 C-33.26348 8.33369334 -28.87028263 6.99577966 -24.47659302 5.65933228 C-22.48891731 5.05163511 -20.50278704 4.43885874 -18.51828003 3.82089233 C-15.81636753 2.98009435 -13.10969717 2.15692391 -10.40112305 1.33789062 C-9.62544983 1.09118118 -8.84977661 0.84447174 -8.05059814 0.59028625 C-2.87596293 -0.94692984 -2.87596293 -0.94692984 0 0 Z " fill="#A67A5A" transform="translate(1787.295654296875,149.755859375)"/>
<path d="M0 0 C19.47 0 38.94 0 59 0 C63.90968175 30.15318003 63.90968175 30.15318003 65.69677734 41.29296875 C65.82097699 42.06715841 65.94517663 42.84134808 66.07313991 43.63899803 C71.96625628 80.40801685 77.63658589 117.2128302 83.35847533 154.00877929 C85.74881401 169.38021601 88.14279556 184.75108252 90.53864217 200.12166166 C104.09575252 287.09833226 104.09575252 287.09833226 110.71711391 329.97798777 C112.31124344 340.29918575 113.91237387 350.61929836 115.51486301 360.93920135 C116.71499943 368.67051305 117.90825388 376.40282174 119.09201199 384.13665843 C119.9670137 389.84935355 120.85320203 395.56027426 121.74389076 401.27054596 C122.09441309 403.53002032 122.44114913 405.79008628 122.7835598 408.05080414 C126.15737968 431.78088662 126.15737968 431.78088662 140 450.6875 C149.66275817 457.69583214 161.79631152 461.15192462 173 465 C172.52546129 467.48013629 172.04561015 469.95903256 171.5625 472.4375 C171.42779297 473.14455078 171.29308594 473.85160156 171.15429688 474.58007812 C170.11328125 479.88671875 170.11328125 479.88671875 169 481 C166.70909906 481.09710514 164.41513459 481.12186587 162.12217712 481.12025452 C161.03058701 481.12153615 161.03058701 481.12153615 159.91694456 481.12284368 C157.46014887 481.12450064 155.00342034 481.11897362 152.54663086 481.11352539 C150.79281109 481.11324354 149.03899121 481.11340121 147.28517151 481.1139679 C142.50851331 481.11425595 137.73188 481.10835795 132.95522761 481.10139394 C127.96905946 481.09516171 122.9828908 481.09455671 117.99671936 481.09336853 C108.54776706 481.09025482 99.09882626 481.08204091 89.64987904 481.07201904 C78.89552756 481.06085912 68.14117554 481.05534776 57.38681972 481.05032361 C35.25787338 481.03985833 13.12893741 481.02225813 -9 481 C-8.69075786 478.89535207 -8.3774944 476.7912947 -8.0625 474.6875 C-7.80146484 472.92986328 -7.80146484 472.92986328 -7.53515625 471.13671875 C-7 468 -7 468 -6 465 C-4.26928711 464.09619141 -4.26928711 464.09619141 -2.02734375 463.3515625 C-1.20943359 463.06796875 -0.39152344 462.784375 0.45117188 462.4921875 C1.31291016 462.20601563 2.17464844 461.91984375 3.0625 461.625 C13.87234575 458.01893563 22.17237562 454.10844527 27.75 443.75 C30.59079212 435.22762365 29.95706678 427.24806779 28.62890625 418.48828125 C28.46889633 417.36769821 28.30888641 416.24711517 28.14402771 415.09257507 C27.6279593 411.49750724 27.09562611 407.90507342 26.5625 404.3125 C26.2391496 402.07763064 25.91687915 399.84260475 25.59570312 397.60742188 C24.40951598 389.40314838 23.20360526 381.20173628 22 373 C19.36 354.85 16.72 336.7 14 318 C-36.82 318 -87.64 318 -140 318 C-146.27 330.21 -152.54 342.42 -159 355 C-164.25 365 -164.25 365 -166.4921875 369.234375 C-170.48498304 376.79512997 -174.39157733 384.40137222 -178.30883789 392.00146484 C-181.33980343 397.87867881 -184.38568147 403.74606264 -187.48828125 409.5859375 C-188.30063232 411.12072754 -188.30063232 411.12072754 -189.12939453 412.68652344 C-190.12837273 414.57052557 -191.13277728 416.4516663 -192.14404297 418.32910156 C-196.56596305 426.68670417 -201.14515585 435.34797208 -200 445 C-197.73889015 451.18830063 -194.03616718 454.13377807 -188.25 456.9375 C-182.8893509 459.23492104 -177.2843066 460.76840495 -171.67675781 462.33764648 C-166.09378656 463.90621344 -166.09378656 463.90621344 -165 465 C-165.05078125 467.07421875 -165.05078125 467.07421875 -165.3125 469.6875 C-165.39113281 470.53699219 -165.46976562 471.38648438 -165.55078125 472.26171875 C-166 475 -166 475 -168 481 C-208.26 481 -248.52 481 -290 481 C-288.515 473.575 -288.515 473.575 -287 466 C-282.74116406 463.87058203 -279.82665228 462.52651976 -275.40234375 461.421875 C-273.83782471 461.01666626 -273.83782471 461.01666626 -272.24169922 460.60327148 C-271.15131348 460.32169189 -270.06092773 460.0401123 -268.9375 459.75 C-256.09295292 456.28772579 -245.93909692 452.05562163 -236 443 C-235.34 443 -234.68 443 -234 443 C-233.73606445 442.42217773 -233.47212891 441.84435547 -233.20019531 441.24902344 C-231.94393456 438.89494002 -230.5038663 437.06304191 -228.796875 435.015625 C-224.54596025 429.62411393 -221.42078017 423.82203307 -218.25 417.75 C-217.61289558 416.54473379 -216.97526565 415.33974524 -216.3371582 414.13500977 C-209.60916453 401.39299471 -203.06051799 388.55598474 -196.49830627 375.72808838 C-192.57049932 368.05028289 -188.61031472 360.39217293 -184.57299805 352.77124023 C-181.00724792 346.03559015 -177.50306178 339.26841538 -174 332.5 C-169.63974109 324.07742059 -165.25755272 315.66763314 -160.828125 307.28125 C-156.56514129 299.19818998 -152.3707989 291.07968649 -148.16967773 282.96435547 C-144.82393055 276.50538757 -141.46121613 270.05624062 -138.0625 263.625 C-133.82668688 255.60822617 -129.65982142 247.55635976 -125.5 239.5 C-120.96038193 230.70808501 -116.40057057 221.9280157 -111.77734375 213.1796875 C-108.1490361 206.30499932 -104.5736446 199.40323077 -101 192.5 C-97.02427164 184.82035165 -93.03867915 177.14674527 -89 169.5 C-84.39345809 160.77644491 -79.8537076 152.01877109 -75.31689453 143.25878906 C-70.05424266 133.09868968 -64.76524137 122.95252623 -59.46777344 112.81054688 C-56.9770138 108.04114818 -54.48864238 103.2705037 -52 98.5 C-51.00001112 96.58332753 -50.00001113 94.66666086 -49 92.75 C-48.2575 91.326875 -48.2575 91.326875 -47.5 89.875 C-42 79.33333333 -36.5 68.79166667 -31 58.25 C-30.50483887 57.30084717 -30.00967773 56.35169434 -29.49951172 55.3737793 C-28.50145092 53.46101902 -27.50307951 51.54842078 -26.50439453 49.63598633 C-23.97212697 44.7858471 -21.44565674 39.93283491 -18.9296875 35.07421875 C-18.41792969 34.08808594 -17.90617187 33.10195313 -17.37890625 32.0859375 C-16.42888879 30.25499476 -15.48072445 28.42308822 -14.53515625 26.58984375 C-9.87262621 17.6141375 -4.91966141 8.85539054 0 0 Z M-20 84 C-20.81452637 85.59146851 -20.81452637 85.59146851 -21.64550781 87.21508789 C-39.83279742 122.74430533 -39.83279742 122.74430533 -47.48144531 137.33813477 C-52.0334184 146.03525826 -56.51596595 154.76772767 -61 163.5 C-65.97169731 173.18163215 -70.95105027 182.85834168 -76 192.5 C-81.00519999 202.05938583 -85.9447529 211.65182383 -90.875 221.25 C-96.3161504 231.84231756 -101.76578366 242.42989296 -107.25 253 C-107.80171875 254.06436279 -108.3534375 255.12872559 -108.921875 256.2253418 C-111.59423463 261.37755394 -114.27335398 266.5260966 -116.96618652 271.66763306 C-118.28648844 274.1896777 -119.60378598 276.71328539 -120.92077637 279.23706055 C-121.85599126 281.02613608 -122.79562658 282.81289868 -123.73535156 284.59960938 C-124.29448242 285.67146484 -124.85361328 286.74332031 -125.4296875 287.84765625 C-125.92710449 288.79648682 -126.42452148 289.74531738 -126.93701172 290.72290039 C-128.14099905 292.88321174 -128.14099905 292.88321174 -128 295 C-82.13 295 -36.26 295 11 295 C10.41242814 287.94913773 9.82482505 281.02891119 8.83021545 274.04682922 C8.71643269 273.22873832 8.60264994 272.41064742 8.48541921 271.56776589 C8.10943802 268.8706478 7.72870976 266.17422348 7.34790039 263.4777832 C7.07487674 261.52695833 6.80212313 259.57609564 6.52961731 257.62519836 C5.79328941 252.36106666 5.05254072 247.09756675 4.31045461 241.83424401 C3.84694197 238.54571359 3.38428517 235.25706388 2.92190361 231.96837425 C1.30885379 220.49669715 -0.30818798 209.02558983 -1.9284668 197.55493164 C-3.43974021 186.85508781 -4.94155108 176.15394342 -6.43919367 165.45218402 C-7.72622841 156.25873621 -9.02020621 147.06628284 -10.3195706 137.87456959 C-11.09527141 132.38622516 -11.86801592 126.89750255 -12.63361931 121.40773964 C-13.35205536 116.25770135 -14.07905842 111.10894682 -14.8128376 105.96107292 C-15.08126542 104.06717806 -15.3465473 102.1728344 -15.60853577 100.27803802 C-15.96507963 97.70287305 -16.33266617 95.12952945 -16.70323181 92.55635071 C-16.85688994 91.41738648 -16.85688994 91.41738648 -17.01365227 90.25541288 C-17.27365453 88.49208787 -17.62717558 86.74296248 -18 85 C-18.99 84.505 -18.99 84.505 -20 84 Z " fill="#A67A5A" transform="translate(291,29)"/>
<path d="M0 0 C1.68533827 1.3096528 3.35418628 2.6410104 5 4 C3.77081439 12.4873594 2.2879651 20.87207426 0.49511719 29.25756836 C0.24973835 30.41954396 0.00435951 31.58151957 -0.24845505 32.77870655 C-0.92161968 35.96298763 -1.59795812 39.14657429 -2.2756958 42.32988453 C-3.00791299 45.77309032 -3.73587893 49.21719509 -4.46435547 52.66119385 C-5.72579018 58.62213778 -6.9897691 64.58253746 -8.25549316 70.54257202 C-10.10695856 79.26093273 -11.95425836 87.98017211 -13.80041647 96.69965804 C-14.66491094 100.78268995 -15.52955005 104.86569123 -16.39422607 108.94868469 C-16.56705557 109.76478649 -16.73988507 110.58088829 -16.91795182 111.42172045 C-18.15750947 117.27449873 -19.39781519 123.12711821 -20.63848877 128.97966003 C-25.35072162 151.20862832 -30.0547162 173.43932053 -34.75 195.671875 C-34.90619332 196.41144353 -35.06238664 197.15101206 -35.22331309 197.91299176 C-36.63446083 204.59473853 -38.04550784 211.27650656 -39.45640469 217.95830631 C-42.7030743 233.3340004 -45.95151886 248.70931934 -49.20015597 264.08459783 C-49.81152292 266.97811731 -50.42287359 269.87164022 -51.03422433 272.76516312 C-57.48717065 303.30692366 -63.94099749 333.8484981 -70.39610565 364.3898018 C-71.39089963 369.0965515 -72.38559639 373.80332174 -73.38024902 378.51010132 C-74.70070165 384.75853931 -76.02134867 391.00693618 -77.34214973 397.25530052 C-77.82166196 399.52389316 -78.30110954 401.79249947 -78.78048515 404.06112099 C-79.43639881 407.16513529 -80.09254623 410.26910008 -80.7487793 413.37304688 C-80.94838729 414.31772166 -81.14799528 415.26239645 -81.353652 416.23569775 C-82.69978368 422.60020948 -84.06458589 428.96039011 -85.44978333 435.31652832 C-87.52650252 445.44493298 -89.48817385 457.86630004 -84 467 C-80.48062123 470.10533421 -77.11897251 470.59359453 -72.5703125 470.3984375 C-57.44020246 468.0530405 -44.76217657 456.03577744 -34 446 C-31.68512821 443.97709402 -29.34494141 441.9881025 -27 440 C-23.54798361 441.47721422 -21.35038064 443.43794001 -18.75 446.125 C-18.04359375 446.84945313 -17.3371875 447.57390625 -16.609375 448.3203125 C-16.07828125 448.87460937 -15.5471875 449.42890625 -15 450 C-17.76309751 455.1586571 -20.82304144 459.49145292 -24.6875 463.875 C-25.24421387 464.51066895 -25.80092773 465.14633789 -26.37451172 465.80126953 C-36.66597413 477.39288388 -47.57630621 488.68222966 -60 498 C-60.76828125 498.59683594 -61.5365625 499.19367188 -62.328125 499.80859375 C-80.3374232 513.19630053 -101.20047985 519.37520956 -123.5 519.3125 C-124.64597656 519.32861328 -125.79195312 519.34472656 -126.97265625 519.36132812 C-140.79646789 519.3691915 -155.12198845 515.42659371 -165.4765625 505.75390625 C-175.88578014 493.76996081 -177.82582569 479.33281094 -177 464 C-176.67971417 460.52987971 -176.24711923 457.07940913 -175.7890625 453.625 C-175.59049149 452.12556602 -175.59049149 452.12556602 -175.38790894 450.59584045 C-173.72321609 438.46463928 -171.44641236 426.45725082 -169.125 414.4375 C-168.87085941 413.11259223 -168.61689644 411.78765038 -168.36309814 410.462677 C-158.5881877 359.49481757 -147.80299886 308.71936699 -137.24022102 257.91063058 C-134.78015944 246.07705332 -132.32500216 234.24246424 -129.87295532 222.4072237 C-128.47508949 215.66139044 -127.07436509 208.91617699 -125.66693115 202.17233276 C-120.19687885 175.95705794 -114.80863054 149.72657742 -109.90160179 123.3991375 C-109.46202167 121.04739565 -109.01768118 118.69653745 -108.56804848 116.34669685 C-103.24563636 93.2996971 -103.24563636 93.2996971 -107.6875 70.91796875 C-108.120625 70.28503906 -108.55375 69.65210937 -109 69 C-109.474375 68.29488281 -109.94875 67.58976562 -110.4375 66.86328125 C-116.94419195 58.4014535 -126.77937887 55.86357375 -136.6640625 52.9921875 C-137.43492187 52.66476563 -138.20578125 52.33734375 -139 52 C-140.15837573 48.52487282 -139.77265943 46.86329714 -139.0625 43.3125 C-138.86785156 42.31863281 -138.67320312 41.32476562 -138.47265625 40.30078125 C-138.23869141 39.16189453 -138.23869141 39.16189453 -138 38 C-120.97142541 32.43346259 -103.8015704 27.40559802 -86.57772446 22.48640442 C-80.74560425 20.82032493 -74.91473828 19.14985491 -69.08379555 17.47966003 C-67.62339129 17.06141791 -66.16294089 16.64333688 -64.70244408 16.22541809 C-55.0756297 13.47032622 -45.46155571 10.67596631 -35.859375 7.8359375 C-33.75860383 7.21741057 -31.65777589 6.59907641 -29.55688477 5.98095703 C-26.64894866 5.12538203 -23.7422898 4.26644686 -20.83908081 3.3949585 C-18.23276722 2.6127896 -15.62284067 1.84405885 -13.01171875 1.078125 C-12.26279358 0.84894379 -11.51386841 0.61976257 -10.74224854 0.38363647 C-6.81491911 -0.75320395 -3.87883716 -1.47632581 0 0 Z " fill="#A67A5A" transform="translate(869,1)"/>
<path d="M0 0 C3.75135277 6.00216443 -0.51007391 17.16145391 -1.9206543 23.76245117 C-2.17563785 24.97259636 -2.4306214 26.18274155 -2.69333172 27.4295578 C-3.39701783 30.76500989 -4.10453728 34.09960584 -4.81371832 37.43389106 C-5.57717927 41.02808058 -6.33560541 44.62333265 -7.09463501 48.21846008 C-8.40866923 54.43903661 -9.72581119 60.65894841 -11.04507446 66.87841797 C-12.97121103 75.95902439 -14.89244387 85.04066301 -16.81243408 94.12257075 C-19.7232138 107.89077574 -22.63669889 121.65840614 -25.55235016 135.42558026 C-29.63581384 154.70710367 -33.7120283 173.99015023 -37.78371525 193.27416372 C-38.57295172 197.01205915 -39.36225579 200.74994031 -40.15155029 204.48782349 C-40.46545831 205.97441411 -40.77936593 207.46100481 -41.09327316 208.9475956 C-41.24821039 209.68134132 -41.40314761 210.41508704 -41.5627799 211.17106748 C-42.0300871 213.38414118 -42.49738353 215.59721716 -42.96467972 217.8102932 C-46.35247191 233.85433255 -49.74234542 249.89793197 -53.1328125 265.94140625 C-53.35872432 267.01042372 -53.35872432 267.01042372 -53.58920002 268.1010375 C-57.92019765 288.59528567 -62.25375317 309.08899191 -66.58912092 329.58231604 C-67.66918636 334.68783791 -68.74911927 339.7933878 -69.82896423 344.8989563 C-69.97876273 345.60720735 -70.12856123 346.31545841 -70.28289908 347.04517162 C-70.88080457 349.8720909 -71.47870805 352.69901061 -72.07659423 355.52593398 C-73.65651735 362.99608489 -75.23674335 370.46617141 -76.81802368 377.93603516 C-78.13925344 384.17746185 -79.45975596 390.41904195 -80.77971268 396.66073799 C-81.25883508 398.92565634 -81.73824235 401.19051445 -82.21796799 403.4553051 C-91.51954195 434.92279824 -91.51954195 434.92279824 -87.4375 465.5 C-83.92264332 468.70472227 -80.47407443 469.02572775 -75.88671875 468.84375 C-58.0110604 466.33488567 -43.04267147 450.28215341 -30.4375 438.5 C-26.98548361 439.97721422 -24.78788064 441.93794001 -22.1875 444.625 C-21.48109375 445.34945313 -20.7746875 446.07390625 -20.046875 446.8203125 C-19.51578125 447.37460937 -18.9846875 447.92890625 -18.4375 448.5 C-21.04055384 453.30239332 -23.84799004 457.55486523 -27.4375 461.6875 C-27.94168457 462.26991455 -28.44586914 462.8523291 -28.96533203 463.45239258 C-52.34421267 489.9701361 -79.60531398 515.22218946 -116.64306641 517.71582031 C-120.05591696 517.85302529 -123.45951266 517.91674235 -126.875 517.9375 C-127.93992676 517.9475708 -129.00485352 517.9576416 -130.10205078 517.96801758 C-144.11048053 517.81464061 -157.84051088 514.0576432 -168.3125 504.375 C-178.59576555 493.2145775 -180.90864345 480.25469473 -180.375 465.5625 C-177.65350108 417.41537497 -163.6902135 368.52849915 -153.93060058 321.42959338 C-152.44736247 314.2703287 -150.96930176 307.10999738 -149.49148667 299.94961166 C-144.10219465 273.83836831 -138.69668618 247.73053974 -133.26612663 221.62784576 C-122.70561682 171.17567428 -122.70561682 171.17567428 -112.83450317 120.58557129 C-112.41576581 118.3459061 -111.99215557 116.10714416 -111.56271362 113.86950684 C-106.36939746 90.14879417 -106.36939746 90.14879417 -111.84765625 67.5 C-118.25072471 59.44503428 -125.93558611 56.13762365 -135.4375 52.5 C-136.32179688 52.15710937 -137.20609375 51.81421875 -138.1171875 51.4609375 C-139.88352659 50.78834575 -141.65916469 50.14020071 -143.4375 49.5 C-142.7775 45.21 -142.1175 40.92 -141.4375 36.5 C-123.79873241 30.72673793 -105.94833875 25.66836445 -88.11712646 20.53082275 C-83.21924467 19.11907259 -78.32227405 17.70416456 -73.42535591 16.28907585 C-69.36699671 15.11655853 -65.30805142 13.94615662 -61.24777222 12.78030396 C-53.62687324 10.59008601 -46.01258266 8.38197892 -38.41578579 6.10935307 C-34.90899883 5.06101571 -31.39957646 4.02166022 -27.88997841 2.98277855 C-26.22096017 2.4858378 -24.55328682 1.9843549 -22.88707542 1.47808266 C-20.58070759 0.77756915 -18.27020408 0.09270522 -15.95825195 -0.58911133 C-15.28252199 -0.79894213 -14.60679203 -1.00877293 -13.9105854 -1.22496223 C-8.70648159 -2.73392341 -4.68470942 -2.8828981 0 0 Z " fill="#A67A5A" transform="translate(678.4375,2.5)"/>
<path d="M0 0 C0.94875 0.61875 1.8975 1.2375 2.875 1.875 C5 5 5 5 4.86409855 7.47638035 C4.67796718 8.4374013 4.4918358 9.39842226 4.30006409 10.38856506 C3.99528987 11.99983874 3.99528987 11.99983874 3.6843586 13.64366341 C3.45852026 14.75125448 3.23268192 15.85884556 3 17 C2.79650373 18.02072538 2.59300747 19.04145077 2.38334465 20.09310722 C1.71609731 23.36904085 1.02308327 26.63868038 0.32397461 29.90795898 C0.06099484 31.14807078 -0.20198492 32.38818258 -0.47293377 33.66587353 C-1.19340396 37.06293269 -1.91712287 40.45929222 -2.64146137 43.85552835 C-3.41983236 47.50781401 -4.19522319 51.16073249 -4.9710083 54.81356812 C-6.30399635 61.08797078 -7.63895831 67.36195083 -8.97525024 73.63565063 C-10.89561437 82.65151023 -12.81241377 91.66812513 -14.7286762 100.68485725 C-21.34469907 131.81325786 -27.97943818 162.93761998 -34.64932442 194.05452538 C-35.53537037 198.18823536 -36.4209073 202.32205429 -37.30638123 206.45588684 C-37.87731961 209.12106971 -38.44829506 211.78624464 -39.01928711 214.45141602 C-39.29557921 215.74104657 -39.57187132 217.03067713 -39.85653591 218.3593874 C-41.47642603 225.91810418 -43.10018043 233.47597864 -44.72685814 241.03323746 C-45.72910619 245.69276151 -46.72838353 250.35291925 -47.7269516 255.01323318 C-48.18403336 257.14307192 -48.64243012 259.27262899 -49.10230255 261.40186691 C-53.61167121 281.23368402 -53.61167121 281.23368402 -55.3125 301.4375 C-55.33763672 303.38462891 -55.33763672 303.38462891 -55.36328125 305.37109375 C-54.97141698 309.2855229 -54.07154208 311.67669672 -52 315 C-47.55208673 318.1031953 -43.29630612 318.81411268 -38 318 C-21.55395009 313.63575587 -9.2288012 302.24008961 3 291 C4.1055189 291.93590504 5.20935453 292.87379858 6.3125 293.8125 C6.92738281 294.33457031 7.54226563 294.85664063 8.17578125 295.39453125 C8.77777344 295.92433594 9.37976562 296.45414062 10 297 C10.59167969 297.45761719 11.18335938 297.91523438 11.79296875 298.38671875 C13 300 13 300 13.05078125 302.21875 C11.5162965 306.28028584 8.96689083 309.20207498 6.1875 312.5 C5.60653564 313.2005249 5.02557129 313.9010498 4.42700195 314.62280273 C0.60894882 319.18781004 -3.29792221 323.66941048 -7.3125 328.0625 C-7.76665283 328.56136719 -8.22080566 329.06023437 -8.6887207 329.57421875 C-28.34793715 350.66056957 -54.78205395 367.27769808 -84.12182617 369.20507812 C-87.39623534 369.30245832 -90.66173321 369.32215164 -93.9375 369.3125 C-95.02740234 369.32861328 -96.11730469 369.34472656 -97.24023438 369.36132812 C-111.48618678 369.36979274 -125.14732739 365.53316211 -135.9375 355.8125 C-147.17874865 343.44992978 -146.70259496 328.41327567 -146.20898438 312.77148438 C-145.13800201 293.44375586 -140.50376286 274.24093962 -136.61328125 255.328125 C-136.17780059 253.20337079 -135.74245623 251.07858864 -135.30723572 248.95378113 C-133.87530993 241.96840035 -132.43814627 234.98410242 -131 228 C-130.74837601 226.77775349 -130.49675201 225.55550697 -130.23750305 224.29622269 C-126.60475769 206.65280442 -122.9617296 189.01151958 -119.31480336 171.37102836 C-118.1865922 165.91350241 -117.05922236 160.45580291 -115.93204027 154.99806434 C-114.68843483 148.97671675 -113.44424173 142.95549075 -112.19979668 136.93431664 C-111.6801946 134.41998496 -111.16073696 131.90562343 -110.64143562 129.39122963 C-109.92039587 125.9004453 -109.19877723 122.40978138 -108.47680664 118.91918945 C-108.2557406 117.84967324 -108.03467457 116.78015703 -107.80690956 115.67823124 C-106.41605518 108.96396941 -104.99132461 102.25867869 -103.50839233 95.56407166 C-101.26535382 84.25132931 -102.83693393 74.36704223 -109.125 64.75 C-116.69683454 57.50737566 -126.45893052 53.92867567 -136 50 C-135.34 45.38 -134.68 40.76 -134 36 C-123.74282533 32.51598801 -113.45839564 29.31119717 -103.04296875 26.33984375 C-101.54048671 25.90853718 -100.03808812 25.47693983 -98.5357666 25.04507446 C-94.5687681 23.90563229 -90.60064969 22.77014719 -86.63210678 21.63609695 C-80.06858009 19.76043343 -73.50593712 17.88167659 -66.94309425 16.00362206 C-65.3155544 15.53800603 -63.68795919 15.07258342 -62.06030846 14.60735512 C-52.0278731 11.73975603 -42.00674447 8.83899818 -32 5.8828125 C-29.11002179 5.0346473 -26.21971867 4.18760124 -23.32925415 3.34109497 C-21.57902578 2.82525628 -19.83027341 2.30438079 -18.08309937 1.77828979 C-15.72950999 1.0699023 -13.37154218 0.37868182 -11.01171875 -0.30859375 C-10.34547485 -0.51471283 -9.67923096 -0.72083191 -8.99279785 -0.93319702 C-5.25446568 -1.99997336 -3.23361522 -2.27073863 0 0 Z " fill="#A67A5A" transform="translate(1589,151)"/>
<path d="M0 0 C0.87470947 -0.01417969 1.74941895 -0.02835937 2.65063477 -0.04296875 C15.02549889 0.04987465 26.82352016 4.64964147 35.8125 13.25 C46.53043473 24.86474151 49.36077872 38.06524964 48.8203125 53.5546875 C47.81666779 69.68243743 39.23543514 82.50737386 27.50390625 93.125 C14.52292332 103.48819635 0.66125537 106.60888501 -15.5625 105.375 C-28.02590137 103.62600853 -39.08309149 97.68086158 -47.5625 88.375 C-56.42446893 76.37158913 -59.34081795 62.07683456 -57.27832031 47.34521484 C-54.54259598 31.93201196 -46.71711089 19.3720973 -33.87548828 10.16552734 C-22.98803004 2.97316955 -12.98591208 0.16321649 0 0 Z " fill="#A67A5A" transform="translate(1567.5625,2.625)"/>
</svg>
